name rise30.9205peak61.366fall85.3838.mot
datacolumns 19
datarows 33
range 22.37991400000000 22.43324900000000
endheader
time	ground_force1_vx	ground_force1_vy	ground_force1_vz	ground_force1_px	ground_force1_py	ground_force1_pz	ground_force2_vx	ground_force2_vy	ground_force2_vz	ground_force2_px	ground_force2_py	ground_force2_pz	ground_torque1_x	ground_torque1_y	ground_torque1_z	ground_torque2_x	ground_torque2_y	ground_torque2_z	
22.37991400000000	12.62039700000000	681.70224900000005	34.53865200000000	0.25105100000000	0.00000000000000	0.07202800000000	0.00000000000000	0.00000000000000	0.00000000000000	0.00000000000000	0.00000000000000	0.00000000000000	0.00000000000000	14.86602700000000	0.00000000000000	0.00000000000000	0.00000000000000	0.00000000000000	
22.38160400000000	12.30879100000000	682.03143799999998	34.58826500000000	0.25045900000000	0.00000000000000	0.07198100000000	0.00000000000000	0.00000000000000	0.00000000000000	0.00000000000000	0.00000000000000	0.00000000000000	0.00000000000000	14.89580000000000	0.00000000000000	0.00000000000000	0.00000000000000	0.00000000000000	
22.38324800000000	11.99089000000000	682.41346299999998	34.64266600000000	0.24986500000000	0.00000000000000	0.07193500000000	0.00000000000000	0.00000000000000	0.00000000000000	0.00000000000000	0.00000000000000	0.00000000000000	0.00000000000000	14.92970400000000	0.00000000000000	0.00000000000000	0.00000000000000	0.00000000000000	
22.38492000000000	11.66619900000000	682.84735799999999	34.70160100000000	0.24926800000000	0.00000000000000	0.07189000000000	0.00000000000000	0.00000000000000	0.00000000000000	0.00000000000000	0.00000000000000	0.00000000000000	0.00000000000000	14.96757500000000	0.00000000000000	0.00000000000000	0.00000000000000	0.00000000000000	
22.38658500000000	11.33423900000000	683.33219299999996	34.76482700000000	0.24866500000000	0.00000000000000	0.07184700000000	0.00000000000000	0.00000000000000	0.00000000000000	0.00000000000000	0.00000000000000	0.00000000000000	0.00000000000000	15.00925700000000	0.00000000000000	0.00000000000000	0.00000000000000	0.00000000000000	
22.38824700000000	10.99455000000000	683.86707500000000	34.83210500000000	0.24805400000000	0.00000000000000	0.07180400000000	0.00000000000000	0.00000000000000	0.00000000000000	0.00000000000000	0.00000000000000	0.00000000000000	0.00000000000000	15.05459700000000	0.00000000000000	0.00000000000000	0.00000000000000	0.00000000000000	
22.38992000000000	10.64669300000000	684.45115199999998	34.90321100000000	0.24743400000000	0.00000000000000	0.07176300000000	0.00000000000000	0.00000000000000	0.00000000000000	0.00000000000000	0.00000000000000	0.00000000000000	0.00000000000000	15.10344600000000	0.00000000000000	0.00000000000000	0.00000000000000	0.00000000000000	
22.39158500000000	10.29025100000000	685.08361800000000	34.97792600000000	0.24680200000000	0.00000000000000	0.07172400000000	0.00000000000000	0.00000000000000	0.00000000000000	0.00000000000000	0.00000000000000	0.00000000000000	0.00000000000000	15.15565900000000	0.00000000000000	0.00000000000000	0.00000000000000	0.00000000000000	
22.39325100000000	9.92483600000000	685.76371700000004	35.05604200000000	0.24615700000000	0.00000000000000	0.07168600000000	0.00000000000000	0.00000000000000	0.00000000000000	0.00000000000000	0.00000000000000	0.00000000000000	0.00000000000000	15.21109900000000	0.00000000000000	0.00000000000000	0.00000000000000	0.00000000000000	
22.39491700000000	9.55008100000000	686.49073999999996	35.13736400000000	0.24549600000000	0.00000000000000	0.07165000000000	0.00000000000000	0.00000000000000	0.00000000000000	0.00000000000000	0.00000000000000	0.00000000000000	0.00000000000000	15.26963200000000	0.00000000000000	0.00000000000000	0.00000000000000	0.00000000000000	
22.39658200000000	9.16565300000000	687.26403200000004	35.22170300000000	0.24481900000000	0.00000000000000	0.07161500000000	0.00000000000000	0.00000000000000	0.00000000000000	0.00000000000000	0.00000000000000	0.00000000000000	0.00000000000000	15.33112800000000	0.00000000000000	0.00000000000000	0.00000000000000	0.00000000000000	
22.39825100000000	8.77124500000000	688.08299199999999	35.30888600000000	0.24412300000000	0.00000000000000	0.07158300000000	0.00000000000000	0.00000000000000	0.00000000000000	0.00000000000000	0.00000000000000	0.00000000000000	0.00000000000000	15.39546700000000	0.00000000000000	0.00000000000000	0.00000000000000	0.00000000000000	
22.39991500000000	8.36658400000000	688.94707100000005	35.39874800000000	0.24340800000000	0.00000000000000	0.07155200000000	0.00000000000000	0.00000000000000	0.00000000000000	0.00000000000000	0.00000000000000	0.00000000000000	0.00000000000000	15.46253000000000	0.00000000000000	0.00000000000000	0.00000000000000	0.00000000000000	
22.40158300000000	7.95142900000000	689.85577599999999	35.49113700000000	0.24267200000000	0.00000000000000	0.07152300000000	0.00000000000000	0.00000000000000	0.00000000000000	0.00000000000000	0.00000000000000	0.00000000000000	0.00000000000000	15.53220500000000	0.00000000000000	0.00000000000000	0.00000000000000	0.00000000000000	
22.40324700000000	7.52557200000000	690.80866800000001	35.58591200000000	0.24191500000000	0.00000000000000	0.07149600000000	0.00000000000000	0.00000000000000	0.00000000000000	0.00000000000000	0.00000000000000	0.00000000000000	0.00000000000000	15.60438700000000	0.00000000000000	0.00000000000000	0.00000000000000	0.00000000000000	
22.40491500000000	7.08884300000000	691.80535899999995	35.68294700000000	0.24113400000000	0.00000000000000	0.07147100000000	0.00000000000000	0.00000000000000	0.00000000000000	0.00000000000000	0.00000000000000	0.00000000000000	0.00000000000000	15.67897400000000	0.00000000000000	0.00000000000000	0.00000000000000	0.00000000000000	
22.40658600000000	6.64110600000000	692.84551299999998	35.78212500000000	0.24033000000000	0.00000000000000	0.07144800000000	0.00000000000000	0.00000000000000	0.00000000000000	0.00000000000000	0.00000000000000	0.00000000000000	0.00000000000000	15.75587300000000	0.00000000000000	0.00000000000000	0.00000000000000	0.00000000000000	
22.40825300000000	6.18226300000000	693.92884600000002	35.88334400000000	0.23950200000000	0.00000000000000	0.07142700000000	0.00000000000000	0.00000000000000	0.00000000000000	0.00000000000000	0.00000000000000	0.00000000000000	0.00000000000000	15.83499200000000	0.00000000000000	0.00000000000000	0.00000000000000	0.00000000000000	
22.40991500000000	5.71225400000000	695.05511700000000	35.98651500000000	0.23865000000000	0.00000000000000	0.07140900000000	0.00000000000000	0.00000000000000	0.00000000000000	0.00000000000000	0.00000000000000	0.00000000000000	0.00000000000000	15.91624900000000	0.00000000000000	0.00000000000000	0.00000000000000	0.00000000000000	
22.41158300000000	5.23105800000000	696.22413200000005	36.09156300000000	0.23777200000000	0.00000000000000	0.07139200000000	0.00000000000000	0.00000000000000	0.00000000000000	0.00000000000000	0.00000000000000	0.00000000000000	0.00000000000000	15.99956300000000	0.00000000000000	0.00000000000000	0.00000000000000	0.00000000000000	
22.41324700000000	4.73869200000000	697.43573800000001	36.19842500000000	0.23687000000000	0.00000000000000	0.07137800000000	0.00000000000000	0.00000000000000	0.00000000000000	0.00000000000000	0.00000000000000	0.00000000000000	0.00000000000000	16.08485900000000	0.00000000000000	0.00000000000000	0.00000000000000	0.00000000000000	
22.41493900000000	4.23521200000000	698.68981499999995	36.30705200000000	0.23594300000000	0.00000000000000	0.07136500000000	0.00000000000000	0.00000000000000	0.00000000000000	0.00000000000000	0.00000000000000	0.00000000000000	0.00000000000000	16.17206900000000	0.00000000000000	0.00000000000000	0.00000000000000	0.00000000000000	
22.41658200000000	3.72071500000000	699.98627999999997	36.41741100000000	0.23499100000000	0.00000000000000	0.07135500000000	0.00000000000000	0.00000000000000	0.00000000000000	0.00000000000000	0.00000000000000	0.00000000000000	0.00000000000000	16.26112500000000	0.00000000000000	0.00000000000000	0.00000000000000	0.00000000000000	
22.41825400000000	3.19533600000000	701.32507599999997	36.52948100000000	0.23401600000000	0.00000000000000	0.07134700000000	0.00000000000000	0.00000000000000	0.00000000000000	0.00000000000000	0.00000000000000	0.00000000000000	0.00000000000000	16.35196800000000	0.00000000000000	0.00000000000000	0.00000000000000	0.00000000000000	
22.41991500000000	2.65925000000000	702.70616700000005	36.64325500000000	0.23301600000000	0.00000000000000	0.07134000000000	0.00000000000000	0.00000000000000	0.00000000000000	0.00000000000000	0.00000000000000	0.00000000000000	0.00000000000000	16.44453800000000	0.00000000000000	0.00000000000000	0.00000000000000	0.00000000000000	
22.42158200000000	2.11267000000000	704.12953600000003	36.75874200000000	0.23199400000000	0.00000000000000	0.07133600000000	0.00000000000000	0.00000000000000	0.00000000000000	0.00000000000000	0.00000000000000	0.00000000000000	0.00000000000000	16.53878000000000	0.00000000000000	0.00000000000000	0.00000000000000	0.00000000000000	
22.42324700000000	1.55584900000000	705.59517700000004	36.87596300000000	0.23094900000000	0.00000000000000	0.07133400000000	0.00000000000000	0.00000000000000	0.00000000000000	0.00000000000000	0.00000000000000	0.00000000000000	0.00000000000000	16.63464400000000	0.00000000000000	0.00000000000000	0.00000000000000	0.00000000000000	
22.42491600000000	0.98907700000000	707.10309099999995	36.99495600000000	0.22988400000000	0.00000000000000	0.07133300000000	0.00000000000000	0.00000000000000	0.00000000000000	0.00000000000000	0.00000000000000	0.00000000000000	0.00000000000000	16.73207800000000	0.00000000000000	0.00000000000000	0.00000000000000	0.00000000000000	
22.42658700000000	0.41268000000000	708.65327500000001	37.11576900000000	0.22879800000000	0.00000000000000	0.07133500000000	0.00000000000000	0.00000000000000	0.00000000000000	0.00000000000000	0.00000000000000	0.00000000000000	0.00000000000000	16.83103700000000	0.00000000000000	0.00000000000000	0.00000000000000	0.00000000000000	
22.42825000000000	-0.17297700000000	710.24572000000001	37.23846800000000	0.22769300000000	0.00000000000000	0.07133800000000	0.00000000000000	0.00000000000000	0.00000000000000	0.00000000000000	0.00000000000000	0.00000000000000	0.00000000000000	16.93147200000000	0.00000000000000	0.00000000000000	0.00000000000000	0.00000000000000	
22.42991700000000	-0.76749600000000	711.88040300000000	37.36313000000000	0.22657100000000	0.00000000000000	0.07134200000000	0.00000000000000	0.00000000000000	0.00000000000000	0.00000000000000	0.00000000000000	0.00000000000000	0.00000000000000	17.03334000000000	0.00000000000000	0.00000000000000	0.00000000000000	0.00000000000000	
22.43158200000000	-1.37044400000000	713.55727999999999	37.48984600000000	0.22543200000000	0.00000000000000	0.07134900000000	0.00000000000000	0.00000000000000	0.00000000000000	0.00000000000000	0.00000000000000	0.00000000000000	0.00000000000000	17.13659500000000	0.00000000000000	0.00000000000000	0.00000000000000	0.00000000000000	
22.43324900000000	-1.98135400000000	715.27627700000005	37.61872000000000	0.22427900000000	0.00000000000000	0.07135600000000	0.00000000000000	0.00000000000000	0.00000000000000	0.00000000000000	0.00000000000000	0.00000000000000	0.00000000000000	17.24119200000000	0.00000000000000	0.00000000000000	0.00000000000000	0.00000000000000	
